<svg width="100%" viewBox="0 0 680 900" xmlns="http://www.w3.org/2000/svg">
<defs>
  <marker id="arrow" viewBox="0 0 10 10" refX="8" refY="5" markerWidth="6" markerHeight="6" orient="auto-start-reverse">
    <path d="M2 1L8 5L2 9" fill="none" stroke="context-stroke" stroke-width="1.5" stroke-linecap="round" stroke-linejoin="round"/>
  </marker>

  <style>
    text { font-family: -apple-system, BlinkMacSystemFont, "Segoe UI", sans-serif; }
    .th  { font-size: 14px; font-weight: 500; fill: #1a1a1a; }
    .ts  { font-size: 12px; font-weight: 400; fill: #5f5e5a; }

    /* Teal */
    .c-teal rect  { fill: #E1F5EE; stroke: #0F6E56; }
    .c-teal .th   { fill: #085041; }
    .c-teal .ts   { fill: #0F6E56; }

    /* Purple */
    .c-purple rect { fill: #EEEDFE; stroke: #534AB7; }
    .c-purple .th  { fill: #3C3489; }
    .c-purple .ts  { fill: #534AB7; }

    /* Blue */
    .c-blue rect  { fill: #E6F1FB; stroke: #185FA5; }
    .c-blue .th   { fill: #0C447C; }
    .c-blue .ts   { fill: #185FA5; }

    /* Gray */
    .c-gray rect  { fill: #F1EFE8; stroke: #5F5E5A; }
    .c-gray .th   { fill: #444441; }
    .c-gray .ts   { fill: #5F5E5A; }

    /* Amber */
    .c-amber rect { fill: #FAEEDA; stroke: #854F0B; }
    .c-amber .th  { fill: #633806; }
    .c-amber .ts  { fill: #854F0B; }

    /* Coral */
    .c-coral rect { fill: #FAECE7; stroke: #993C1D; }
    .c-coral .th  { fill: #712B13; }
    .c-coral .ts  { fill: #993C1D; }

    .arr { stroke: #888780; stroke-width: 1.5; fill: none; }
  </style>
</defs>

<!-- Title -->
<text class="th" x="340" y="26" text-anchor="middle" style="font-size:15px;">Wings Fly Aviation Academy — payment tracking</text>
<text class="ts" x="340" y="44" text-anchor="middle">v8 final · March 2026 · all 3 tests passed</text>

<!-- SECTION 1 — STUDENT PAYMENT -->
<rect x="20" y="58" width="640" height="20" rx="5" fill="none" stroke="#d3d1c7" stroke-width="0.5"/>
<text class="ts" x="340" y="72" text-anchor="middle" style="font-weight:500;">Student payment flow</text>

<g class="c-teal">
  <rect x="24" y="88" width="180" height="56" rx="8" stroke-width="0.5"/>
  <text class="th" x="114" y="110" text-anchor="middle" dominant-baseline="central">modals-student.html</text>
  <text class="ts" x="114" y="128" text-anchor="middle" dominant-baseline="central">method required, UI</text>
</g>
<line x1="204" y1="116" x2="232" y2="116" class="arr" marker-end="url(#arrow)"/>

<g class="c-teal">
  <rect x="232" y="88" width="196" height="56" rx="8" stroke-width="0.5"/>
  <text class="th" x="330" y="110" text-anchor="middle" dominant-baseline="central">handleAddInstallment</text>
  <text class="ts" x="330" y="128" text-anchor="middle" dominant-baseline="central">finance-crud.js · dup. check</text>
</g>
<line x1="428" y1="116" x2="456" y2="116" class="arr" marker-end="url(#arrow)"/>

<g class="c-teal">
  <rect x="456" y="88" width="200" height="56" rx="8" stroke-width="0.5"/>
  <text class="th" x="556" y="110" text-anchor="middle" dominant-baseline="central">feApplyEntryToAccount</text>
  <text class="ts" x="556" y="128" text-anchor="middle" dominant-baseline="central">finance-engine.js · balance +</text>
</g>

<!-- SECTION 2 — SALARY DUE/BONUS -->
<rect x="20" y="162" width="640" height="20" rx="5" fill="none" stroke="#d3d1c7" stroke-width="0.5"/>
<text class="ts" x="340" y="176" text-anchor="middle" style="font-weight:500;">Salary flow (Due / Bonus) — test passed</text>

<g class="c-purple">
  <rect x="24" y="192" width="160" height="56" rx="8" stroke-width="0.5"/>
  <text class="th" x="104" y="214" text-anchor="middle" dominant-baseline="central">salary-modal.html</text>
  <text class="ts" x="104" y="232" text-anchor="middle" dominant-baseline="central">Due / Bonus button</text>
</g>
<line x1="184" y1="220" x2="212" y2="220" class="arr" marker-end="url(#arrow)"/>

<g class="c-purple">
  <rect x="212" y="192" width="196" height="56" rx="8" stroke-width="0.5"/>
  <text class="th" x="310" y="214" text-anchor="middle" dominant-baseline="central">handleSalarySubmit</text>
  <text class="ts" x="310" y="232" text-anchor="middle" dominant-baseline="central">type:'Expense' · cat:'Salaries'</text>
</g>
<line x1="408" y1="220" x2="436" y2="220" class="arr" marker-end="url(#arrow)"/>

<g class="c-purple">
  <rect x="436" y="192" width="220" height="56" rx="8" stroke-width="0.5"/>
  <text class="th" x="546" y="214" text-anchor="middle" dominant-baseline="central">updateAccountBalance</text>
  <text class="ts" x="546" y="232" text-anchor="middle" dominant-baseline="central">app.js → fe delegate ✓</text>
</g>

<!-- SECTION 3 — ADVANCE -->
<rect x="20" y="266" width="640" height="20" rx="5" fill="none" stroke="#d3d1c7" stroke-width="0.5"/>
<text class="ts" x="340" y="280" text-anchor="middle" style="font-weight:500;">Salary advance flow — test passed (separate track)</text>

<g class="c-blue">
  <rect x="24" y="296" width="160" height="56" rx="8" stroke-width="0.5"/>
  <text class="th" x="104" y="318" text-anchor="middle" dominant-baseline="central">salary-modal.html</text>
  <text class="ts" x="104" y="336" text-anchor="middle" dominant-baseline="central">Advance button</text>
</g>
<line x1="184" y1="324" x2="212" y2="324" class="arr" marker-end="url(#arrow)"/>

<g class="c-blue">
  <rect x="212" y="296" width="196" height="56" rx="8" stroke-width="0.5"/>
  <text class="th" x="310" y="318" text-anchor="middle" dominant-baseline="central">handleSalarySubmit</text>
  <text class="ts" x="310" y="336" text-anchor="middle" dominant-baseline="central">type:'Advance' · source:'salary'</text>
</g>
<line x1="408" y1="324" x2="436" y2="324" class="arr" marker-end="url(#arrow)"/>

<g class="c-blue">
  <rect x="436" y="296" width="220" height="56" rx="8" stroke-width="0.5"/>
  <text class="th" x="546" y="318" text-anchor="middle" dominant-baseline="central">Accounts management</text>
  <text class="ts" x="546" y="336" text-anchor="middle" dominant-baseline="central">renderAccMgmtList('Advance')</text>
</g>

<!-- SECTION 4 — ENGINE -->
<rect x="20" y="370" width="640" height="20" rx="5" fill="none" stroke="#d3d1c7" stroke-width="0.5"/>
<text class="ts" x="340" y="384" text-anchor="middle" style="font-weight:500;">finance-engine.js — canonical rules (single source of truth)</text>

<g class="c-gray">
  <rect x="24" y="400" width="190" height="56" rx="8" stroke-width="0.5"/>
  <text class="th" x="119" y="422" text-anchor="middle" dominant-baseline="central">feApplyEntryToAccount</text>
  <text class="ts" x="119" y="440" text-anchor="middle" dominant-baseline="central">Cash / Bank / Mobile routing</text>
</g>

<g class="c-gray">
  <rect x="234" y="400" width="190" height="56" rx="8" stroke-width="0.5"/>
  <text class="th" x="329" y="422" text-anchor="middle" dominant-baseline="central">feRebuildAllBalances</text>
  <text class="ts" x="329" y="440" text-anchor="middle" dominant-baseline="central">startBalance + replay all</text>
</g>

<g class="c-gray">
  <rect x="444" y="400" width="212" height="56" rx="8" stroke-width="0.5"/>
  <text class="th" x="550" y="422" text-anchor="middle" dominant-baseline="central">feSyncStudentPaid</text>
  <text class="ts" x="550" y="440" text-anchor="middle" dominant-baseline="central">O(n+m) · v8 optimized</text>
</g>

<!-- SECTION 5 — STORAGE -->
<rect x="20" y="474" width="640" height="20" rx="5" fill="none" stroke="#d3d1c7" stroke-width="0.5"/>
<text class="ts" x="340" y="488" text-anchor="middle" style="font-weight:500;">Storage layer</text>

<g class="c-amber">
  <rect x="24" y="504" width="190" height="56" rx="8" stroke-width="0.5"/>
  <text class="th" x="119" y="526" text-anchor="middle" dominant-baseline="central">globalData.finance[]</text>
  <text class="ts" x="119" y="544" text-anchor="middle" dominant-baseline="central">all entries, method field</text>
</g>

<g class="c-amber">
  <rect x="234" y="504" width="190" height="56" rx="8" stroke-width="0.5"/>
  <text class="th" x="329" y="526" text-anchor="middle" dominant-baseline="central">localStorage</text>
  <text class="ts" x="329" y="544" text-anchor="middle" dominant-baseline="central">wingsfly_data · saveToStorage</text>
</g>

<g class="c-amber">
  <rect x="444" y="504" width="212" height="56" rx="8" stroke-width="0.5"/>
  <text class="th" x="550" y="526" text-anchor="middle" dominant-baseline="central">snapshot-system.js</text>
  <text class="ts" x="550" y="544" text-anchor="middle" dominant-baseline="central">hourly · last 7 kept</text>
</g>

<!-- SECTION 6 — SAFETY -->
<rect x="20" y="578" width="640" height="20" rx="5" fill="none" stroke="#d3d1c7" stroke-width="0.5"/>
<text class="ts" x="340" y="592" text-anchor="middle" style="font-weight:500;">Safety and integrity layer</text>

<g class="c-coral">
  <rect x="24" y="608" width="190" height="56" rx="8" stroke-width="0.5"/>
  <text class="th" x="119" y="630" text-anchor="middle" dominant-baseline="central">Recycle bin</text>
  <text class="ts" x="119" y="648" text-anchor="middle" dominant-baseline="central">soft delete · restore</text>
</g>

<g class="c-coral">
  <rect x="234" y="608" width="190" height="56" rx="8" stroke-width="0.5"/>
  <text class="th" x="329" y="630" text-anchor="middle" dominant-baseline="central">Warning system</text>
  <text class="ts" x="329" y="648" text-anchor="middle" dominant-baseline="central">orphan · unknown method</text>
</g>

<g class="c-coral">
  <rect x="444" y="608" width="212" height="56" rx="8" stroke-width="0.5"/>
  <text class="th" x="550" y="630" text-anchor="middle" dominant-baseline="central">v8 fixes</text>
  <text class="ts" x="550" y="648" text-anchor="middle" dominant-baseline="central">double-run · double-call guard</text>
</g>

<!-- VERTICAL FLOW ARROWS -->
<line x1="329" y1="352" x2="329" y2="370" stroke="#b4b2a9" stroke-width="0.5" stroke-dasharray="3 2" marker-end="url(#arrow)"/>
<line x1="329" y1="456" x2="329" y2="474" stroke="#b4b2a9" stroke-width="0.5" stroke-dasharray="3 2" marker-end="url(#arrow)"/>
<line x1="329" y1="560" x2="329" y2="578" stroke="#b4b2a9" stroke-width="0.5" stroke-dasharray="3 2" marker-end="url(#arrow)"/>

<!-- LEGEND -->
<rect x="20" y="682" width="640" height="96" rx="10" fill="none" stroke="#d3d1c7" stroke-width="0.5"/>

<g class="c-teal">
  <rect x="36" y="698" width="110" height="64" rx="8" stroke-width="0.5"/>
  <text class="th" x="91" y="722" text-anchor="middle" dominant-baseline="central">Student pay</text>
  <text class="ts" x="91" y="742" text-anchor="middle" dominant-baseline="central">verified ✓</text>
</g>

<g class="c-purple">
  <rect x="162" y="698" width="110" height="64" rx="8" stroke-width="0.5"/>
  <text class="th" x="217" y="722" text-anchor="middle" dominant-baseline="central">Salary Due</text>
  <text class="ts" x="217" y="742" text-anchor="middle" dominant-baseline="central">test passed ✓</text>
</g>

<g class="c-blue">
  <rect x="288" y="698" width="110" height="64" rx="8" stroke-width="0.5"/>
  <text class="th" x="343" y="722" text-anchor="middle" dominant-baseline="central">Advance</text>
  <text class="ts" x="343" y="742" text-anchor="middle" dominant-baseline="central">test passed ✓</text>
</g>

<g class="c-amber">
  <rect x="414" y="698" width="110" height="64" rx="8" stroke-width="0.5"/>
  <text class="th" x="469" y="722" text-anchor="middle" dominant-baseline="central">Storage</text>
  <text class="ts" x="469" y="742" text-anchor="middle" dominant-baseline="central">local + snapshot</text>
</g>

<g class="c-gray">
  <rect x="540" y="698" width="104" height="64" rx="8" stroke-width="0.5"/>
  <text class="th" x="592" y="722" text-anchor="middle" dominant-baseline="central">Engine</text>
  <text class="ts" x="592" y="742" text-anchor="middle" dominant-baseline="central">canonical rules</text>
</g>

<text class="ts" x="340" y="812" text-anchor="middle">Wings Fly Aviation Academy · wingsfly_v8_final_architecture · verified March 2026</text>
</svg>
